<mxfile host="app.diagrams.net" modified="2022-08-04T07:54:06.634Z" agent="5.0 (Macintosh; Intel Mac OS X 10_15_7) AppleWebKit/537.36 (KHTML, like Gecko) Chrome/103.0.0.0 Safari/537.36" etag="CtorkEX_SSrXu0tRTYL3" version="20.0.4" type="github">
  <diagram name="Page-1" id="13e1069c-82ec-6db2-03f1-153e76fe0fe0">
    <mxGraphModel dx="1195" dy="709" grid="1" gridSize="10" guides="1" tooltips="1" connect="1" arrows="1" fold="1" page="1" pageScale="1" pageWidth="1100" pageHeight="850" background="none" math="0" shadow="0">
      <root>
        <mxCell id="0" />
        <mxCell id="1" parent="0" />
        <mxCell id="7baba1c4bc27f4b0-2" value="merchant center" style="shape=umlLifeline;perimeter=lifelinePerimeter;whiteSpace=wrap;html=1;container=1;collapsible=0;recursiveResize=0;outlineConnect=0;rounded=1;shadow=0;comic=0;labelBackgroundColor=none;strokeWidth=1;fontFamily=Verdana;fontSize=12;align=center;" parent="1" vertex="1">
          <mxGeometry x="420" y="80" width="100" height="650" as="geometry" />
        </mxCell>
        <mxCell id="7baba1c4bc27f4b0-10" value="" style="html=1;points=[];perimeter=orthogonalPerimeter;rounded=0;shadow=0;comic=0;labelBackgroundColor=none;strokeWidth=1;fontFamily=Verdana;fontSize=12;align=center;" parent="7baba1c4bc27f4b0-2" vertex="1">
          <mxGeometry x="45" y="100" width="10" height="60" as="geometry" />
        </mxCell>
        <mxCell id="7baba1c4bc27f4b0-35" value="验证sessionID" style="html=1;verticalAlign=bottom;endArrow=block;labelBackgroundColor=none;fontFamily=Verdana;fontSize=12;elbow=vertical;edgeStyle=orthogonalEdgeStyle;curved=1;" parent="7baba1c4bc27f4b0-2" target="7baba1c4bc27f4b0-10" edge="1">
          <mxGeometry x="-0.3379" y="5" relative="1" as="geometry">
            <mxPoint x="60" y="115" as="sourcePoint" />
            <mxPoint x="90" y="134.5" as="targetPoint" />
            <Array as="points">
              <mxPoint x="110" y="115" />
              <mxPoint x="110" y="150" />
            </Array>
            <mxPoint as="offset" />
          </mxGeometry>
        </mxCell>
        <mxCell id="HWjfSklImMOgDDX84rdS-6" value="" style="html=1;points=[];perimeter=orthogonalPerimeter;rounded=0;shadow=0;comic=0;labelBackgroundColor=none;strokeWidth=1;fontFamily=Verdana;fontSize=12;align=center;" vertex="1" parent="7baba1c4bc27f4b0-2">
          <mxGeometry x="45" y="285" width="10" height="60" as="geometry" />
        </mxCell>
        <mxCell id="HWjfSklImMOgDDX84rdS-7" value="解密Token&lt;br&gt;取出sessionID" style="html=1;verticalAlign=bottom;endArrow=block;labelBackgroundColor=none;fontFamily=Verdana;fontSize=12;elbow=vertical;edgeStyle=orthogonalEdgeStyle;curved=1;" edge="1" parent="7baba1c4bc27f4b0-2">
          <mxGeometry x="-0.2497" y="30" relative="1" as="geometry">
            <mxPoint x="60" y="297.5" as="sourcePoint" />
            <mxPoint x="55" y="332.5" as="targetPoint" />
            <Array as="points">
              <mxPoint x="110" y="297.5" />
              <mxPoint x="110" y="332.5" />
            </Array>
            <mxPoint as="offset" />
          </mxGeometry>
        </mxCell>
        <mxCell id="HWjfSklImMOgDDX84rdS-8" value="&lt;span style=&quot;background-color: rgb(230, 230, 230);&quot;&gt;种下cookie&lt;/span&gt;" style="html=1;verticalAlign=bottom;endArrow=open;dashed=1;endSize=8;labelBackgroundColor=none;fontFamily=Verdana;fontSize=12;edgeStyle=elbowEdgeStyle;elbow=vertical;" edge="1" parent="7baba1c4bc27f4b0-2">
          <mxGeometry relative="1" as="geometry">
            <mxPoint x="-260" y="335" as="targetPoint" />
            <Array as="points">
              <mxPoint y="335" />
              <mxPoint x="30" y="335" />
            </Array>
            <mxPoint x="40" y="331" as="sourcePoint" />
          </mxGeometry>
        </mxCell>
        <mxCell id="HWjfSklImMOgDDX84rdS-14" value="" style="html=1;points=[];perimeter=orthogonalPerimeter;rounded=0;shadow=0;comic=0;labelBackgroundColor=none;strokeWidth=1;fontFamily=Verdana;fontSize=12;align=center;" vertex="1" parent="7baba1c4bc27f4b0-2">
          <mxGeometry x="45" y="483" width="10" height="87" as="geometry" />
        </mxCell>
        <mxCell id="HWjfSklImMOgDDX84rdS-19" value="&lt;span style=&quot;background-color: rgb(230, 230, 230);&quot;&gt;返回用户信息&lt;br&gt;&lt;/span&gt;" style="html=1;verticalAlign=bottom;endArrow=open;dashed=1;endSize=8;labelBackgroundColor=none;fontFamily=Verdana;fontSize=12;edgeStyle=elbowEdgeStyle;elbow=vertical;" edge="1" parent="7baba1c4bc27f4b0-2">
          <mxGeometry relative="1" as="geometry">
            <mxPoint x="60" y="550" as="targetPoint" />
            <Array as="points">
              <mxPoint x="390.54999999999995" y="550" />
              <mxPoint x="420.54999999999995" y="550" />
            </Array>
            <mxPoint x="490.04999999999995" y="550" as="sourcePoint" />
          </mxGeometry>
        </mxCell>
        <mxCell id="7baba1c4bc27f4b0-3" value="UAC" style="shape=umlLifeline;perimeter=lifelinePerimeter;whiteSpace=wrap;html=1;container=1;collapsible=0;recursiveResize=0;outlineConnect=0;rounded=1;shadow=0;comic=0;labelBackgroundColor=none;strokeWidth=1;fontFamily=Verdana;fontSize=12;align=center;" parent="1" vertex="1">
          <mxGeometry x="700" y="80" width="100" height="580" as="geometry" />
        </mxCell>
        <mxCell id="7baba1c4bc27f4b0-13" value="" style="html=1;points=[];perimeter=orthogonalPerimeter;rounded=0;shadow=0;comic=0;labelBackgroundColor=none;strokeWidth=1;fontFamily=Verdana;fontSize=12;align=center;" parent="7baba1c4bc27f4b0-3" vertex="1">
          <mxGeometry x="45" y="190" width="10" height="60" as="geometry" />
        </mxCell>
        <mxCell id="HWjfSklImMOgDDX84rdS-3" value="创建授权sessionID" style="html=1;verticalAlign=bottom;endArrow=block;labelBackgroundColor=none;fontFamily=Verdana;fontSize=12;elbow=vertical;edgeStyle=orthogonalEdgeStyle;curved=1;" edge="1" parent="7baba1c4bc27f4b0-3">
          <mxGeometry x="-0.2852" y="10" relative="1" as="geometry">
            <mxPoint x="60" y="202.5" as="sourcePoint" />
            <mxPoint x="55" y="237.5" as="targetPoint" />
            <Array as="points">
              <mxPoint x="110" y="202.5" />
              <mxPoint x="110" y="237.5" />
            </Array>
            <mxPoint y="-3" as="offset" />
          </mxGeometry>
        </mxCell>
        <mxCell id="7baba1c4bc27f4b0-4" value="HSF" style="shape=umlLifeline;perimeter=lifelinePerimeter;whiteSpace=wrap;html=1;container=1;collapsible=0;recursiveResize=0;outlineConnect=0;rounded=1;shadow=0;comic=0;labelBackgroundColor=none;strokeWidth=1;fontFamily=Verdana;fontSize=12;align=center;" parent="1" vertex="1">
          <mxGeometry x="860" y="80" width="100" height="580" as="geometry" />
        </mxCell>
        <mxCell id="HWjfSklImMOgDDX84rdS-10" value="" style="html=1;points=[];perimeter=orthogonalPerimeter;rounded=0;shadow=0;comic=0;labelBackgroundColor=none;strokeWidth=1;fontFamily=Verdana;fontSize=12;align=center;" vertex="1" parent="7baba1c4bc27f4b0-4">
          <mxGeometry x="45" y="390" width="10" height="70" as="geometry" />
        </mxCell>
        <mxCell id="HWjfSklImMOgDDX84rdS-11" value="账密校验，&lt;br&gt;sessionID生效" style="html=1;verticalAlign=bottom;endArrow=block;labelBackgroundColor=none;fontFamily=Verdana;fontSize=12;elbow=vertical;edgeStyle=orthogonalEdgeStyle;curved=1;" edge="1" parent="7baba1c4bc27f4b0-4">
          <mxGeometry x="-0.2497" y="30" relative="1" as="geometry">
            <mxPoint x="60" y="410.03" as="sourcePoint" />
            <mxPoint x="55" y="445.03" as="targetPoint" />
            <Array as="points">
              <mxPoint x="110" y="410.03" />
              <mxPoint x="110" y="445.03" />
            </Array>
            <mxPoint as="offset" />
          </mxGeometry>
        </mxCell>
        <mxCell id="HWjfSklImMOgDDX84rdS-17" value="" style="html=1;points=[];perimeter=orthogonalPerimeter;rounded=0;shadow=0;comic=0;labelBackgroundColor=none;strokeWidth=1;fontFamily=Verdana;fontSize=12;align=center;" vertex="1" parent="7baba1c4bc27f4b0-4">
          <mxGeometry x="45" y="500" width="10" height="60" as="geometry" />
        </mxCell>
        <mxCell id="HWjfSklImMOgDDX84rdS-18" value="有效" style="html=1;verticalAlign=bottom;endArrow=block;labelBackgroundColor=none;fontFamily=Verdana;fontSize=12;elbow=vertical;edgeStyle=orthogonalEdgeStyle;curved=1;" edge="1" parent="7baba1c4bc27f4b0-4">
          <mxGeometry x="-0.2497" y="30" relative="1" as="geometry">
            <mxPoint x="60" y="512.5" as="sourcePoint" />
            <mxPoint x="55" y="547.5" as="targetPoint" />
            <Array as="points">
              <mxPoint x="110" y="512.5" />
              <mxPoint x="110" y="547.5" />
            </Array>
            <mxPoint as="offset" />
          </mxGeometry>
        </mxCell>
        <mxCell id="7baba1c4bc27f4b0-8" value="用户" style="shape=umlLifeline;perimeter=lifelinePerimeter;whiteSpace=wrap;html=1;container=1;collapsible=0;recursiveResize=0;outlineConnect=0;rounded=1;shadow=0;comic=0;labelBackgroundColor=none;strokeWidth=1;fontFamily=Verdana;fontSize=12;align=center;" parent="1" vertex="1">
          <mxGeometry x="100" y="80" width="100" height="620" as="geometry" />
        </mxCell>
        <mxCell id="7baba1c4bc27f4b0-9" value="" style="html=1;points=[];perimeter=orthogonalPerimeter;rounded=0;shadow=0;comic=0;labelBackgroundColor=none;strokeWidth=1;fontFamily=Verdana;fontSize=12;align=center;" parent="7baba1c4bc27f4b0-8" vertex="1">
          <mxGeometry x="45" y="100" width="10" height="520" as="geometry" />
        </mxCell>
        <mxCell id="HWjfSklImMOgDDX84rdS-1" value="&lt;font style=&quot;font-size: 12px;&quot;&gt;302&lt;br&gt;uac.lazada.com/tbpass/jump&lt;/font&gt;" style="html=1;verticalAlign=bottom;endArrow=open;dashed=1;endSize=8;labelBackgroundColor=none;fontFamily=Verdana;fontSize=12;edgeStyle=elbowEdgeStyle;elbow=vertical;" edge="1" parent="7baba1c4bc27f4b0-8" source="7baba1c4bc27f4b0-2">
          <mxGeometry relative="1" as="geometry">
            <mxPoint x="60" y="153" as="targetPoint" />
            <Array as="points">
              <mxPoint x="140" y="153" />
              <mxPoint x="170" y="153" />
            </Array>
            <mxPoint x="270" y="153" as="sourcePoint" />
          </mxGeometry>
        </mxCell>
        <mxCell id="7baba1c4bc27f4b0-11" value="访问" style="html=1;verticalAlign=bottom;endArrow=block;labelBackgroundColor=none;fontFamily=Verdana;fontSize=12;edgeStyle=elbowEdgeStyle;elbow=vertical;" parent="1" target="7baba1c4bc27f4b0-2" edge="1">
          <mxGeometry relative="1" as="geometry">
            <mxPoint x="160" y="190" as="sourcePoint" />
            <mxPoint x="375" y="190" as="targetPoint" />
            <Array as="points">
              <mxPoint x="200" y="190" />
            </Array>
          </mxGeometry>
        </mxCell>
        <mxCell id="HWjfSklImMOgDDX84rdS-2" value="访问&lt;br&gt;uac.lazada.com/tbpass/jump" style="html=1;verticalAlign=bottom;endArrow=block;labelBackgroundColor=none;fontFamily=Verdana;fontSize=12;edgeStyle=elbowEdgeStyle;elbow=vertical;" edge="1" parent="1" target="7baba1c4bc27f4b0-3">
          <mxGeometry relative="1" as="geometry">
            <mxPoint x="159.9999999999999" y="278" as="sourcePoint" />
            <mxPoint x="570" y="278" as="targetPoint" />
            <Array as="points">
              <mxPoint x="205" y="278" />
            </Array>
          </mxGeometry>
        </mxCell>
        <mxCell id="HWjfSklImMOgDDX84rdS-4" value="&lt;span style=&quot;background-color: rgb(230, 230, 230);&quot;&gt;302&lt;br&gt;xxx.lazada.xxx/tbpass/add?params=【base64加密的token】&lt;/span&gt;" style="html=1;verticalAlign=bottom;endArrow=open;dashed=1;endSize=8;labelBackgroundColor=none;fontFamily=Verdana;fontSize=12;edgeStyle=elbowEdgeStyle;elbow=vertical;" edge="1" parent="1" source="7baba1c4bc27f4b0-3">
          <mxGeometry relative="1" as="geometry">
            <mxPoint x="160" y="320" as="targetPoint" />
            <Array as="points">
              <mxPoint x="420" y="320" />
              <mxPoint x="450" y="320" />
            </Array>
            <mxPoint x="560" y="320" as="sourcePoint" />
          </mxGeometry>
        </mxCell>
        <mxCell id="HWjfSklImMOgDDX84rdS-5" value="访问&lt;br&gt;&lt;span style=&quot;background-color: rgb(230, 230, 230);&quot;&gt;xxx.lazada.xxx/tbpass/add?params=【base64加密的token】&lt;/span&gt;" style="html=1;verticalAlign=bottom;endArrow=block;labelBackgroundColor=none;fontFamily=Verdana;fontSize=12;edgeStyle=elbowEdgeStyle;elbow=vertical;" edge="1" parent="1" target="7baba1c4bc27f4b0-2">
          <mxGeometry relative="1" as="geometry">
            <mxPoint x="160" y="369.47" as="sourcePoint" />
            <mxPoint x="370" y="369" as="targetPoint" />
            <Array as="points">
              <mxPoint x="470" y="369" />
            </Array>
          </mxGeometry>
        </mxCell>
        <mxCell id="HWjfSklImMOgDDX84rdS-9" value="发起MTOP请求账号密码登录" style="html=1;verticalAlign=bottom;endArrow=block;labelBackgroundColor=none;fontFamily=Verdana;fontSize=12;edgeStyle=elbowEdgeStyle;elbow=vertical;" edge="1" parent="1" target="7baba1c4bc27f4b0-4">
          <mxGeometry relative="1" as="geometry">
            <mxPoint x="160" y="480.47" as="sourcePoint" />
            <mxPoint x="469.5" y="480" as="targetPoint" />
            <Array as="points">
              <mxPoint x="470" y="480" />
            </Array>
          </mxGeometry>
        </mxCell>
        <mxCell id="HWjfSklImMOgDDX84rdS-12" value="&lt;span style=&quot;background-color: rgb(230, 230, 230);&quot;&gt;302&lt;br&gt;到merchant center站点&lt;br&gt;&lt;/span&gt;" style="html=1;verticalAlign=bottom;endArrow=open;dashed=1;endSize=8;labelBackgroundColor=none;fontFamily=Verdana;fontSize=12;edgeStyle=elbowEdgeStyle;elbow=vertical;" edge="1" parent="1" source="7baba1c4bc27f4b0-4" target="7baba1c4bc27f4b0-8">
          <mxGeometry relative="1" as="geometry">
            <mxPoint x="550" y="524" as="targetPoint" />
            <Array as="points">
              <mxPoint x="810" y="524" />
              <mxPoint x="840" y="524" />
            </Array>
            <mxPoint x="850" y="520" as="sourcePoint" />
          </mxGeometry>
        </mxCell>
        <mxCell id="HWjfSklImMOgDDX84rdS-13" value="访问" style="html=1;verticalAlign=bottom;endArrow=block;labelBackgroundColor=none;fontFamily=Verdana;fontSize=12;edgeStyle=elbowEdgeStyle;elbow=vertical;" edge="1" parent="1">
          <mxGeometry relative="1" as="geometry">
            <mxPoint x="160" y="570.47" as="sourcePoint" />
            <mxPoint x="469.5" y="570" as="targetPoint" />
            <Array as="points">
              <mxPoint x="470" y="570" />
            </Array>
          </mxGeometry>
        </mxCell>
        <mxCell id="HWjfSklImMOgDDX84rdS-16" value="拿sessionID去检验" style="html=1;verticalAlign=bottom;endArrow=block;labelBackgroundColor=none;fontFamily=Verdana;fontSize=12;edgeStyle=elbowEdgeStyle;elbow=vertical;" edge="1" parent="1" target="7baba1c4bc27f4b0-4">
          <mxGeometry relative="1" as="geometry">
            <mxPoint x="480" y="590.47" as="sourcePoint" />
            <mxPoint x="789.5" y="590" as="targetPoint" />
            <Array as="points">
              <mxPoint x="790" y="590" />
            </Array>
          </mxGeometry>
        </mxCell>
        <mxCell id="HWjfSklImMOgDDX84rdS-20" value="&lt;span style=&quot;background-color: rgb(230, 230, 230);&quot;&gt;返回用户信息&lt;br&gt;&lt;/span&gt;" style="html=1;verticalAlign=bottom;endArrow=open;dashed=1;endSize=8;labelBackgroundColor=none;fontFamily=Verdana;fontSize=12;edgeStyle=elbowEdgeStyle;elbow=vertical;" edge="1" parent="1">
          <mxGeometry relative="1" as="geometry">
            <mxPoint x="160" y="640" as="targetPoint" />
            <Array as="points">
              <mxPoint x="460" y="640" />
              <mxPoint x="520.55" y="640" />
            </Array>
            <mxPoint x="430" y="640" as="sourcePoint" />
          </mxGeometry>
        </mxCell>
      </root>
    </mxGraphModel>
  </diagram>
</mxfile>
